<svg width="25" height="21" viewBox="0 0 25 21" fill="none" xmlns="http://www.w3.org/2000/svg">
<g id="Telegram/2">
<path id="Vector" d="M1.88375 9.20309C8.40288 6.27985 12.75 4.35267 14.9251 3.42155C21.1354 0.763019 22.4258 0.301204 23.2669 0.285792C23.4519 0.282601 23.8656 0.329786 24.1335 0.553543C24.3597 0.742479 24.422 0.997705 24.4518 1.17684C24.4815 1.35597 24.5186 1.76404 24.4892 2.08289C24.1526 5.72222 22.6964 14.5539 21.9556 18.63C21.6421 20.3548 21.0249 20.9331 20.4273 20.9897C19.1287 21.1127 18.1425 20.1064 16.8848 19.2578C14.9166 17.9299 13.8047 17.1033 11.8942 15.8076C9.68631 14.3101 11.1176 13.4871 12.3758 12.142C12.7051 11.79 18.427 6.43359 18.5377 5.94767C18.5516 5.8869 18.5644 5.66037 18.4336 5.54076C18.3029 5.42114 18.1099 5.46205 17.9706 5.49458C17.7732 5.54069 14.629 7.6796 8.538 11.9113C7.64552 12.5421 6.83714 12.8494 6.11287 12.8333C5.31441 12.8155 3.7785 12.3686 2.6367 11.9866C1.23625 11.5181 0.123195 11.2704 0.220117 10.4747C0.2706 10.0602 0.825144 9.63636 1.88375 9.20309Z" fill="black"/>
</g>
</svg>
