<svg width="30" height="30" viewBox="0 0 30 30" fill="none" xmlns="http://www.w3.org/2000/svg">
<g id="YT">
<path id="YouTube/2" d="M29.367 8.12247C29.1964 7.51843 28.8621 6.96767 28.3977 6.52537C27.9332 6.083 27.355 5.76461 26.7208 5.60202C24.3852 5 15 5 15 5C15 5 5.61477 5 3.27921 5.60202C2.64504 5.76461 2.06676 6.083 1.60235 6.52537C1.13793 6.96767 0.803629 7.51843 0.632955 8.12247C0.196847 10.3911 -0.0148026 12.6937 0.000803929 15C-0.0148026 17.3063 0.196847 19.6089 0.632955 21.8775C0.803629 22.4816 1.13793 23.0323 1.60235 23.4746C2.06676 23.9169 2.64504 24.2353 3.27921 24.3979C5.61477 25 15 25 15 25C15 25 24.3852 25 26.7208 24.3979C27.355 24.2353 27.9332 23.9169 28.3977 23.4746C28.8621 23.0323 29.1964 22.4816 29.367 21.8775C29.8032 19.6089 30.0148 17.3063 29.9992 15C30.0148 12.6937 29.8032 10.3911 29.367 8.12247ZM12.0001 19.2857V10.7143L19.789 15L12.0001 19.2857Z" fill="black"/>
</g>
</svg>
